<?xml version="1.0" encoding="iso-8859-1"?>
<!-- Generator: Adobe Illustrator 19.0.0, SVG Export Plug-In . SVG Version: 6.00 Build 0)  -->
<svg version="1.1" id="Capa_1" xmlns="http://www.w3.org/2000/svg" xmlns:xlink="http://www.w3.org/1999/xlink" x="0px" y="0px"
	 viewBox="0 0 511.999 511.999" style="enable-background:new 0 0 511.999 511.999;" xml:space="preserve">
<path style="fill:#B1FFFF;" d="M218.11,235.978l-8.009-17.509c-20.734-45.234-74.211-65.097-119.445-44.363
	S25.559,248.316,46.293,293.55s74.211,65.097,119.445,44.363c19.625-8.995,35.368-24.738,44.363-44.363l8.009-17.509h138.15
	l23.115-40.044L218.11,235.978z M98.109,286.032c-16.587,0-30.033-13.446-30.033-30.033s13.446-30.033,30.033-30.033
	s30.033,13.446,30.033,30.033S114.695,286.032,98.109,286.032L98.109,286.032z"/>
<g>
	<path style="fill:#304FFE;" d="M98.109,217.958c-21.01,0.001-38.04,17.034-38.039,38.043c0.001,21.01,17.034,38.04,38.043,38.039
		c17.922-0.001,33.414-12.512,37.187-30.033h42.897v-16.017h-42.897C131.502,230.484,116.024,217.984,98.109,217.958z
		 M98.109,278.023c-12.163,0-22.024-9.861-22.024-22.024s9.861-22.024,22.024-22.024s22.024,9.861,22.024,22.024
		C120.133,268.164,110.273,278.023,98.109,278.023z"/>
	<path style="fill:#304FFE;" d="M442.384,197.936H242.396c-32.068-63.088-109.206-88.234-172.292-56.166
		S-18.13,250.976,13.937,314.063s109.206,88.234,172.292,56.166c24.198-12.3,43.866-31.968,56.166-56.166h135.788l17.018-29.532
		l17.019,29.532h30.093l69.686-57.993L442.384,197.936z M436.588,298.045h-15.016l-26.339-45.55l-26.299,45.55H232.255l-2.142,4.665
		c-25.798,56.293-92.345,81.015-148.64,55.218C25.18,332.13,0.458,265.583,26.255,209.289s92.345-81.015,148.64-55.218
		c24.428,11.194,44.023,30.789,55.218,55.218l2.142,4.665h204.322l50.455,42.096L436.588,298.045z"/>
</g>
<g>
</g>
<g>
</g>
<g>
</g>
<g>
</g>
<g>
</g>
<g>
</g>
<g>
</g>
<g>
</g>
<g>
</g>
<g>
</g>
<g>
</g>
<g>
</g>
<g>
</g>
<g>
</g>
<g>
</g>
</svg>
