<?xml version="1.0" encoding="iso-8859-1"?>
<!-- Generator: Adobe Illustrator 19.0.0, SVG Export Plug-In . SVG Version: 6.00 Build 0)  -->
<svg version="1.1" id="Capa_1" xmlns="http://www.w3.org/2000/svg" xmlns:xlink="http://www.w3.org/1999/xlink" x="0px" y="0px"
	 viewBox="0 0 512 512" style="enable-background:new 0 0 512 512;" xml:space="preserve">
<g>
	<path style="fill:#B1FFFF;" d="M282.921,124.511c-17.766-3.609-36.076-3.609-53.843,0l-21.512-37.265
		c31.665-8.979,65.203-8.979,96.867,0L282.921,124.511z"/>
	<path style="fill:#B1FFFF;" d="M207.566,424.754l21.512-37.265c17.766,3.609,36.076,3.609,53.843,0l21.512,37.265
		C272.769,433.732,239.231,433.732,207.566,424.754z"/>
	<path style="fill:#B1FFFF;" d="M87.246,304.434c-8.979-31.665-8.979-65.203,0-96.867l37.265,21.512
		c-3.609,17.766-3.609,36.076,0,53.843L87.246,304.434z"/>
	<path style="fill:#B1FFFF;" d="M387.489,282.921c3.609-17.766,3.609-36.076,0-53.843l37.265-21.512
		c8.979,31.665,8.979,65.203,0,96.867L387.489,282.921z"/>
</g>
<path style="fill:#304FFE;" d="M512,264.258v-16.516h-41.466c-4.15-111.948-94.472-202.137-206.276-206.276V0h-16.516v41.466
	C135.05,45.646,45.574,136.857,41.466,247.742H0v16.516h41.466c4.129,112.289,94.668,202.137,206.276,206.276V512h16.516v-41.466
	c112.516-4.129,202.147-94.875,206.276-206.276H512z M256,350.968c-52.449,0-94.968-42.519-94.968-94.968
	s42.519-94.968,94.968-94.968s94.968,42.519,94.968,94.968C350.922,308.43,308.43,350.922,256,350.968z M429.254,159.68
	l-75.159,43.355c-10.327-19.121-26.026-34.798-45.161-45.099l43.355-75.159C384.542,100.827,411.178,127.442,429.254,159.68z
	 M337.548,75.355l-43.757,75.809c-24.425-8.801-51.157-8.801-75.582,0l-43.757-75.809C226.308,51.995,285.692,51.995,337.548,75.355
	z M159.68,82.746l43.355,75.159c-19.121,10.327-34.798,26.026-45.099,45.161l-75.159-43.355
	C100.827,127.458,127.442,100.822,159.68,82.746z M75.355,174.452l75.809,43.757c-8.801,24.425-8.801,51.157,0,75.582
	l-75.809,43.757C51.995,285.692,51.995,226.308,75.355,174.452z M159.732,429.254c-32.246-18.062-58.872-44.689-76.934-76.934
	l75.159-43.355c10.313,19.113,25.994,34.79,45.11,45.099v0.072L159.732,429.254z M174.452,436.697l43.757-75.809
	c24.425,8.801,51.157,8.801,75.582,0l43.757,75.809C285.692,460.057,226.308,460.057,174.452,436.697z M429.254,352.32
	c-18.062,32.246-44.689,58.872-76.934,76.934l-43.355-75.086v-0.072c19.121-10.327,34.798-26.026,45.099-45.161L429.254,352.32z
	 M436.697,337.548l-75.809-43.757c8.801-24.425,8.801-51.157,0-75.582l75.809-43.757
	C460.057,226.308,460.057,285.692,436.697,337.548z"/>
<g>
</g>
<g>
</g>
<g>
</g>
<g>
</g>
<g>
</g>
<g>
</g>
<g>
</g>
<g>
</g>
<g>
</g>
<g>
</g>
<g>
</g>
<g>
</g>
<g>
</g>
<g>
</g>
<g>
</g>
</svg>
