<?xml version="1.0" encoding="iso-8859-1"?>
<!-- Generator: Adobe Illustrator 19.0.0, SVG Export Plug-In . SVG Version: 6.00 Build 0)  -->
<svg version="1.1" id="Capa_1" xmlns="http://www.w3.org/2000/svg" xmlns:xlink="http://www.w3.org/1999/xlink" x="0px" y="0px"
	 viewBox="0 0 512 512" style="enable-background:new 0 0 512 512;" xml:space="preserve">
<path style="fill:#B1FFFF;" d="M126,426V216c0-71.68,58.32-130,130-130s130,58.32,130,130v210H126z"/>
<g>
	<path style="fill:#304FFE;" d="M0,0v512h512V0H0z M496,496H16V16h480V496z"/>
	<rect x="348" y="286" style="fill:#304FFE;" width="16" height="110"/>
	<path style="fill:#304FFE;" d="M164,216c0-50.81,41.19-92,92-92s92,41.19,92,92h16c0-59.647-48.353-108-108-108
		s-108,48.353-108,108v180h16V216z"/>
	<path style="fill:#304FFE;" d="M254.85,168l0.37,16c17.696-0.403,32.369,13.616,32.772,31.312c0.005,0.229,0.008,0.459,0.008,0.688
		v100c0,17.673-14.327,32-32,32s-32-14.327-32-32v-99.25h-16V316c0,26.51,21.49,48,48,48s48-21.49,48-48V216
		c-0.021-26.537-21.55-48.033-48.087-48.013C255.558,167.988,255.204,167.992,254.85,168z"/>
</g>
<g>
</g>
<g>
</g>
<g>
</g>
<g>
</g>
<g>
</g>
<g>
</g>
<g>
</g>
<g>
</g>
<g>
</g>
<g>
</g>
<g>
</g>
<g>
</g>
<g>
</g>
<g>
</g>
<g>
</g>
</svg>
