<?xml version="1.0" encoding="iso-8859-1"?>
<!-- Generator: Adobe Illustrator 19.0.0, SVG Export Plug-In . SVG Version: 6.00 Build 0)  -->
<svg version="1.1" id="Capa_1" xmlns="http://www.w3.org/2000/svg" xmlns:xlink="http://www.w3.org/1999/xlink" x="0px" y="0px"
	 viewBox="0 0 512 512" style="enable-background:new 0 0 512 512;" xml:space="preserve">
<rect x="176" y="98" style="fill:#B1FFFF;" width="160" height="326"/>
<g>
	<path style="fill:#304FFE;" d="M386,0H126c-20.987,0-38,17.013-38,38v436c0,20.987,17.013,38,38,38l0,0h260
		c20.987,0,38-17.013,38-38l0,0V38C424,17.013,406.987,0,386,0z M408,474c0,12.15-9.85,22-22,22H126c-12.15,0-22-9.85-22-22V38
		c0-12.15,9.85-22,22-22h260c12.15,0,22,9.85,22,22V474z"/>
	<polygon style="fill:#304FFE;" points="138,424 154,424 154,76 358,76 358,424 374,424 374,60 138,60 	"/>
	<rect x="245" y="453" style="fill:#304FFE;" width="22" height="22"/>
	<rect x="196" y="30" style="fill:#304FFE;" width="120" height="16"/>
</g>
<g>
</g>
<g>
</g>
<g>
</g>
<g>
</g>
<g>
</g>
<g>
</g>
<g>
</g>
<g>
</g>
<g>
</g>
<g>
</g>
<g>
</g>
<g>
</g>
<g>
</g>
<g>
</g>
<g>
</g>
</svg>
