<?xml version="1.0" encoding="iso-8859-1"?>
<!-- Generator: Adobe Illustrator 19.0.0, SVG Export Plug-In . SVG Version: 6.00 Build 0)  -->
<svg version="1.1" id="Capa_1" xmlns="http://www.w3.org/2000/svg" xmlns:xlink="http://www.w3.org/1999/xlink" x="0px" y="0px"
	 viewBox="0 0 512 512" style="enable-background:new 0 0 512 512;" xml:space="preserve">
<circle style="fill:#B1FFFF;" cx="256" cy="132" r="94"/>
<path style="fill:#304FFE;" d="M388,132C388,59.098,328.902,0,256,0S124,59.098,124,132c0,70.1,54.93,127.6,124,131.75V300h-21v212
	h58V300h-21v-36.25C333.07,259.6,388,202.1,388,132z M243,496v-24h26v24H243z M269,456h-26V316h26V456z M140,132
	c0-64.065,51.935-116,116-116s116,51.935,116,116s-51.935,116-116,116C191.965,247.928,140.072,196.035,140,132z"/>
<g>
</g>
<g>
</g>
<g>
</g>
<g>
</g>
<g>
</g>
<g>
</g>
<g>
</g>
<g>
</g>
<g>
</g>
<g>
</g>
<g>
</g>
<g>
</g>
<g>
</g>
<g>
</g>
<g>
</g>
</svg>
