<?xml version="1.0" encoding="iso-8859-1"?>
<!-- Generator: Adobe Illustrator 19.0.0, SVG Export Plug-In . SVG Version: 6.00 Build 0)  -->
<svg version="1.1" id="Capa_1" xmlns="http://www.w3.org/2000/svg" xmlns:xlink="http://www.w3.org/1999/xlink" x="0px" y="0px"
	 viewBox="0 0 512 512" style="enable-background:new 0 0 512 512;" xml:space="preserve">
<polygon style="fill:#B1FFFF;" points="174.995,474 235.205,238.63 123.365,285.93 92.985,255.55 239.165,103 304.675,103 
	323.365,56.28 332.365,78.78 332.365,474 "/>
<path style="fill:#304FFE;" d="M430.655,65h-62.88l-26-65h-36.83l-26,65h-56L39.815,256.12l74.78,74.78l64.8-27.4L126.055,512
	h346.13L430.655,65z M354.355,496h-207.69l51.24-200.34l30.08-12.66h61.48v-16h-64.73l-106.45,45l-56.1-56.12L229.775,81h60l26-65
	h15.17l23.41,58.54V496z M370.355,81h45.71l38.52,415h-84.23L370.355,81z"/>
<g>
</g>
<g>
</g>
<g>
</g>
<g>
</g>
<g>
</g>
<g>
</g>
<g>
</g>
<g>
</g>
<g>
</g>
<g>
</g>
<g>
</g>
<g>
</g>
<g>
</g>
<g>
</g>
<g>
</g>
</svg>
