<?xml version="1.0" encoding="iso-8859-1"?>
<!-- Generator: Adobe Illustrator 19.0.0, SVG Export Plug-In . SVG Version: 6.00 Build 0)  -->
<svg version="1.1" id="Capa_1" xmlns="http://www.w3.org/2000/svg" xmlns:xlink="http://www.w3.org/1999/xlink" x="0px" y="0px"
	 viewBox="0 0 512 512" style="enable-background:new 0 0 512 512;" xml:space="preserve">
<path style="fill:#B1FFFF;" d="M349.136,183.519v230.337c0,33.186-26.902,60.088-60.088,60.088h-66.097
	c-33.186,0-60.088-26.902-60.088-60.088V183.519c0-33.186,26.902-60.088,60.088-60.088h66.097
	C322.234,123.431,349.136,150.333,349.136,183.519z"/>
<g>
	<path style="fill:#304FFE;" d="M479.327,226.582v-16.023h-92.135v-27.04c-0.063-49.534-36.973-91.281-86.126-97.413L336.428,6.51
		L321.786,0l-37.946,85.375h-55.682L190.214,0l-14.641,6.51l35.362,79.597c-49.152,6.132-86.063,47.879-86.126,97.413v27.04H32.673
		v16.023h92.135v64.094H32.673v16.023h92.135v64.094H32.673v16.023h92.135v27.04c0.061,54.178,43.965,98.083,98.144,98.144h66.097
		c54.178-0.061,98.083-43.965,98.144-98.144v-27.04h92.135v-16.023h-92.135v-64.094h92.135v-16.023h-92.135v-64.094H479.327z
		 M371.169,413.856c-0.055,45.33-36.79,82.065-82.12,82.12h-66.097c-45.331-0.055-82.065-36.79-82.12-82.12V183.519
		c0.055-45.331,36.789-82.065,82.12-82.12h66.097c45.33,0.055,82.065,36.789,82.12,82.12V413.856z"/>
	<polygon style="fill:#304FFE;" points="290.39,252.961 256,287.361 221.61,252.961 210.273,264.297 244.673,298.688 
		210.273,333.078 221.61,344.415 256,310.014 290.39,344.415 301.727,333.078 267.327,298.688 301.727,264.297 	"/>
</g>
<g>
</g>
<g>
</g>
<g>
</g>
<g>
</g>
<g>
</g>
<g>
</g>
<g>
</g>
<g>
</g>
<g>
</g>
<g>
</g>
<g>
</g>
<g>
</g>
<g>
</g>
<g>
</g>
<g>
</g>
</svg>
