<?xml version="1.0" encoding="iso-8859-1"?>
<!-- Generator: Adobe Illustrator 19.0.0, SVG Export Plug-In . SVG Version: 6.00 Build 0)  -->
<svg version="1.1" id="Capa_1" xmlns="http://www.w3.org/2000/svg" xmlns:xlink="http://www.w3.org/1999/xlink" x="0px" y="0px"
	 viewBox="0 0 512 512" style="enable-background:new 0 0 512 512;" xml:space="preserve">
<path style="fill:#B1FFFF;" d="M420.346,315.079l-8.818-73.981l-47.268-13.397V66.823C341.123,53.56,315.738,44.677,289.38,40.62
	l-15.736,92.756l-70.332,37.86l16.646,175.855l-85.668,23.634L93.46,401.227c13.97,15.653,30.133,29.2,47.988,40.22l29.682-18.925
	v-27.143l117.8-12.937l17.945-38.7h148.692c4.103-9.299,7.541-18.877,10.287-28.663L420.346,315.079L420.346,315.079z
	 M325.99,275.999h-59.985v-59.985h59.985V275.999z"/>
<g>
	<path style="fill:#304FFE;" d="M258.008,283.997h75.98v-75.98h-75.98V283.997z M274.004,224.012h43.989v43.989h-43.989V224.012z"/>
	<path style="fill:#304FFE;" d="M264.726,0.23L257.728,0v0.07C119.433-1.42,0.074,110.851,0.074,256.004
		c-0.111,48.766,13.813,96.535,40.11,137.605l-0.1,0.07c0.93,1.35-3.339-4.899,8.998,13.227l0.11-0.08
		c83.272,114.216,243.367,139.3,357.583,56.029c29.585-21.569,54.198-49.236,72.176-81.132h0.05l8.648-15.996h-0.39
		c21.564-45.298,22.994-83.408,23.944-88.637h-0.15C522.939,133.386,412.138,5.179,264.726,0.23z M53.061,383.971
		c-24.249-38.27-37.08-82.662-36.99-127.967c0-135.485,110.791-239.938,238.938-239.938l0,0l-15.726,92.656l-76.17,40.989
		l15.996,169.216l-61.814,17.056L53.061,383.971z M256.008,495.942c-29.497,0.047-58.748-5.377-86.268-15.996v-11.507l39.34-25.094
		v-13.926l105.253-11.557l16.756-36.141h129.307C416.747,452.728,339.358,495.977,256.008,495.942z M469.423,365.726H320.872
		l-17.256,37.24l-110.542,12.117v19.495l-39.34,25.094v13.447c-36.449-17.181-67.978-43.271-91.676-75.86l62.424-46.628
		l71.871-19.835l-16.326-172.006l73.711-39.69l17.396-102.544c40.995,2.538,80.645,15.602,115.12,37.93v156.53l45.378,12.857
		l8.238,69.202h53.206C489.179,318.413,481.191,342.95,469.423,365.726z M454.077,277.089l-7.818-65.683l-43.989-12.477V65.753
		c64.961,49.997,99.933,129.677,92.756,211.336H454.077z"/>
</g>
<g>
</g>
<g>
</g>
<g>
</g>
<g>
</g>
<g>
</g>
<g>
</g>
<g>
</g>
<g>
</g>
<g>
</g>
<g>
</g>
<g>
</g>
<g>
</g>
<g>
</g>
<g>
</g>
<g>
</g>
</svg>
